<mxfile host="app.diagrams.net" agent="Mozilla/5.0 (Windows NT 10.0; Win64; x64) AppleWebKit/537.36 (KHTML, like Gecko) Chrome/128.0.0.0 Safari/537.36 Edg/128.0.0.0" version="24.7.14">
  <diagram name="第 1 页" id="HQHQ2D2dpBf2WggrFsJZ">
    <mxGraphModel dx="651" dy="727" grid="1" gridSize="10" guides="1" tooltips="1" connect="1" arrows="1" fold="1" page="1" pageScale="1" pageWidth="827" pageHeight="1169" math="0" shadow="0">
      <root>
        <mxCell id="0" />
        <mxCell id="1" parent="0" />
        <mxCell id="tqgysiNPPkPzaV-5ETDH-1" value="廠處單位資料檔" style="swimlane;childLayout=stackLayout;horizontal=1;startSize=50;horizontalStack=0;rounded=1;fontSize=14;fontStyle=0;strokeWidth=2;resizeParent=0;resizeLast=1;shadow=0;dashed=0;align=center;arcSize=4;whiteSpace=wrap;html=1;" vertex="1" parent="1">
          <mxGeometry x="110" y="200" width="160" height="260" as="geometry">
            <mxRectangle x="120" y="240" width="140" height="50" as="alternateBounds" />
          </mxGeometry>
        </mxCell>
        <mxCell id="tqgysiNPPkPzaV-5ETDH-2" value="&lt;span style=&quot;background-color: initial;&quot;&gt;廠處代號&lt;/span&gt;&lt;br&gt;&lt;span style=&quot;background-color: initial;&quot;&gt;廠處名稱&lt;/span&gt;&lt;br&gt;&lt;span style=&quot;background-color: initial;&quot;&gt;編制人數&lt;/span&gt;&lt;br&gt;&lt;span style=&quot;background-color: initial;&quot;&gt;短暫超編&lt;/span&gt;&lt;br&gt;&lt;span style=&quot;background-color: initial;&quot;&gt;啟用日期&lt;/span&gt;&lt;br&gt;&lt;span style=&quot;background-color: initial;&quot;&gt;停用日期&lt;/span&gt;&lt;br&gt;&lt;span style=&quot;background-color: initial;&quot;&gt;修改人員&lt;/span&gt;&lt;br&gt;&lt;span style=&quot;background-color: initial;&quot;&gt;修改日期&lt;/span&gt;" style="align=left;strokeColor=none;fillColor=none;spacingLeft=4;fontSize=12;verticalAlign=top;resizable=0;rotatable=0;part=1;html=1;" vertex="1" parent="tqgysiNPPkPzaV-5ETDH-1">
          <mxGeometry y="50" width="160" height="210" as="geometry" />
        </mxCell>
        <mxCell id="tqgysiNPPkPzaV-5ETDH-13" value="廠處編制附件檔" style="swimlane;childLayout=stackLayout;horizontal=1;startSize=50;horizontalStack=0;rounded=1;fontSize=14;fontStyle=0;strokeWidth=2;resizeParent=0;resizeLast=1;shadow=0;dashed=0;align=center;arcSize=4;whiteSpace=wrap;html=1;" vertex="1" parent="1">
          <mxGeometry x="340" y="200" width="160" height="260" as="geometry">
            <mxRectangle x="90" y="200" width="140" height="50" as="alternateBounds" />
          </mxGeometry>
        </mxCell>
        <mxCell id="tqgysiNPPkPzaV-5ETDH-14" value="&lt;span style=&quot;background-color: initial;&quot;&gt;廠處代號&lt;/span&gt;&lt;div&gt;類別&lt;br&gt;生效日期&lt;div&gt;上傳日期&lt;br&gt;&lt;div&gt;核定人數&lt;/div&gt;&lt;div&gt;核定簽呈(附件)&lt;/div&gt;&lt;div&gt;廢止註記&lt;/div&gt;&lt;div&gt;送簽註記&lt;/div&gt;&lt;div&gt;修改人員&lt;/div&gt;&lt;div&gt;修改日期&lt;/div&gt;&lt;/div&gt;&lt;/div&gt;" style="align=left;strokeColor=none;fillColor=none;spacingLeft=4;fontSize=12;verticalAlign=top;resizable=0;rotatable=0;part=1;html=1;" vertex="1" parent="tqgysiNPPkPzaV-5ETDH-13">
          <mxGeometry y="50" width="160" height="210" as="geometry" />
        </mxCell>
        <mxCell id="tqgysiNPPkPzaV-5ETDH-19" value="部門編制人數檔" style="swimlane;childLayout=stackLayout;horizontal=1;startSize=50;horizontalStack=0;rounded=1;fontSize=14;fontStyle=0;strokeWidth=2;resizeParent=0;resizeLast=1;shadow=0;dashed=0;align=center;arcSize=4;whiteSpace=wrap;html=1;" vertex="1" parent="1">
          <mxGeometry x="550" y="200" width="160" height="260" as="geometry">
            <mxRectangle x="90" y="200" width="140" height="50" as="alternateBounds" />
          </mxGeometry>
        </mxCell>
        <mxCell id="tqgysiNPPkPzaV-5ETDH-20" value="&lt;span style=&quot;background-color: initial;&quot;&gt;廠處代號&lt;/span&gt;&lt;br&gt;生效日期&lt;div&gt;上傳日期&lt;br&gt;&lt;div&gt;核定人數&lt;/div&gt;&lt;div&gt;核定簽呈(附件)&lt;/div&gt;&lt;div&gt;廢止註記&lt;/div&gt;&lt;div&gt;送簽註記&lt;/div&gt;&lt;div&gt;修改人員&lt;/div&gt;&lt;div&gt;修改日期&lt;/div&gt;&lt;/div&gt;" style="align=left;strokeColor=none;fillColor=none;spacingLeft=4;fontSize=12;verticalAlign=top;resizable=0;rotatable=0;part=1;html=1;" vertex="1" parent="tqgysiNPPkPzaV-5ETDH-19">
          <mxGeometry y="50" width="160" height="210" as="geometry" />
        </mxCell>
        <mxCell id="tqgysiNPPkPzaV-5ETDH-22" value="&lt;p style=&quot;language:zh-TW;margin-top:0pt;margin-bottom:0pt;margin-left:0in;&lt;br/&gt;text-align:left;direction:ltr;unicode-bidi:embed;mso-line-break-override:none;&lt;br/&gt;word-break:normal;punctuation-wrap:hanging&quot;&gt;&lt;span style=&quot;font-size: 12pt; font-family: 微軟正黑體;&quot;&gt;PNORGZ&lt;br&gt;&lt;/span&gt;&lt;span style=&quot;font-size: 12pt; font-family: 微軟正黑體;&quot;&gt;新增欄位&lt;/span&gt;&lt;/p&gt;" style="swimlane;childLayout=stackLayout;horizontal=1;startSize=50;horizontalStack=0;rounded=1;fontSize=14;fontStyle=0;strokeWidth=2;resizeParent=0;resizeLast=1;shadow=0;dashed=0;align=center;arcSize=4;whiteSpace=wrap;html=1;" vertex="1" parent="1">
          <mxGeometry x="110" y="510" width="160" height="260" as="geometry">
            <mxRectangle x="90" y="200" width="140" height="50" as="alternateBounds" />
          </mxGeometry>
        </mxCell>
        <mxCell id="tqgysiNPPkPzaV-5ETDH-23" value="&lt;div&gt;排序&lt;/div&gt;&lt;div&gt;類型&lt;/div&gt;&lt;div&gt;職務代碼&lt;/div&gt;&lt;div&gt;職務名稱&lt;/div&gt;&lt;div&gt;D/M&lt;/div&gt;&lt;div&gt;分組&lt;/div&gt;&lt;div&gt;超編人數&lt;/div&gt;&lt;div&gt;備註欄&lt;/div&gt;" style="align=left;strokeColor=none;fillColor=none;spacingLeft=4;fontSize=12;verticalAlign=top;resizable=0;rotatable=0;part=1;html=1;" vertex="1" parent="tqgysiNPPkPzaV-5ETDH-22">
          <mxGeometry y="50" width="160" height="210" as="geometry" />
        </mxCell>
        <mxCell id="tqgysiNPPkPzaV-5ETDH-24" value="&lt;p style=&quot;language:zh-TW;margin-top:0pt;margin-bottom:0pt;margin-left:0in;&lt;br/&gt;text-align:left;direction:ltr;unicode-bidi:embed;mso-line-break-override:none;&lt;br/&gt;word-break:normal;punctuation-wrap:hanging&quot;&gt;&lt;span style=&quot;font-size: 12pt; font-family: 微軟正黑體;&quot;&gt;PNORGR&lt;br&gt;&lt;/span&gt;&lt;span style=&quot;font-size: 12pt; font-family: 微軟正黑體;&quot;&gt;新增欄位&lt;/span&gt;&lt;/p&gt;" style="swimlane;childLayout=stackLayout;horizontal=1;startSize=50;horizontalStack=0;rounded=1;fontSize=14;fontStyle=0;strokeWidth=2;resizeParent=0;resizeLast=1;shadow=0;dashed=0;align=center;arcSize=4;whiteSpace=wrap;html=1;" vertex="1" parent="1">
          <mxGeometry x="334" y="510" width="160" height="260" as="geometry">
            <mxRectangle x="90" y="200" width="140" height="50" as="alternateBounds" />
          </mxGeometry>
        </mxCell>
        <mxCell id="tqgysiNPPkPzaV-5ETDH-25" value="&lt;div&gt;排序&lt;/div&gt;&lt;div&gt;類型&lt;/div&gt;&lt;div&gt;職務代碼&lt;/div&gt;&lt;div&gt;職務名稱&lt;/div&gt;&lt;div&gt;D/M&lt;/div&gt;&lt;div&gt;分組&lt;/div&gt;&lt;div&gt;超編人數&lt;/div&gt;&lt;div&gt;備註欄&lt;/div&gt;" style="align=left;strokeColor=none;fillColor=none;spacingLeft=4;fontSize=12;verticalAlign=top;resizable=0;rotatable=0;part=1;html=1;" vertex="1" parent="tqgysiNPPkPzaV-5ETDH-24">
          <mxGeometry y="50" width="160" height="210" as="geometry" />
        </mxCell>
      </root>
    </mxGraphModel>
  </diagram>
</mxfile>
